<?xml version="1.0" encoding="UTF-8"?>
<!DOCTYPE svg PUBLIC "-//W3C//DTD SVG 1.1//EN" "http://www.w3.org/Graphics/SVG/1.1/DTD/svg11.dtd">
<!-- Creator: CorelDRAW 2021 (64-Bit) -->
<svg xmlns="http://www.w3.org/2000/svg" xml:space="preserve" width="250mm" height="70mm" version="1.1" style="shape-rendering:geometricPrecision; text-rendering:geometricPrecision; image-rendering:optimizeQuality; fill-rule:evenodd; clip-rule:evenodd"
viewBox="0 0 25000 7000"
 xmlns:xlink="http://www.w3.org/1999/xlink"
 xmlns:xodm="http://www.corel.com/coreldraw/odm/2003">
 <defs>
  <style type="text/css">
   <![CDATA[
    .fil1 {fill:#11341C}
    .fil2 {fill:#1C9968}
    .fil0 {fill:white}
   ]]>
  </style>
 </defs>
 <g id="Capa_x0020_1">
  <metadata id="CorelCorpID_0Corel-Layer"/>
  <path class="fil0" d="M8290.13 4909.28l0 222.35c0,66.42 -13.05,134.36 -41.87,194.43 -34.21,71.31 -93.09,118.54 -170.11,136.48 -90.4,21.05 -219.11,18.5 -312.93,18.22 -91.2,-0.27 -182.48,-3.11 -273.59,-3.11 -132.83,0 -209.96,-63.39 -278.96,-164.74l-1053.65 -1486.99c-32.51,-45.88 -64.27,-92.27 -97.23,-137.83l0 1298.41c0,52.77 5.78,102.7 3.29,156.61 -8.06,174.05 -105.18,334.54 -298.07,334.54l-580.57 0c-159.14,0 -294.78,-135.66 -294.78,-294.79l0 -3338.25c0,-159.13 135.64,-294.78 294.78,-294.78l512.26 0c132.52,0 207.46,74.99 272.19,175.96l1148.99 1621.02 -0.37 -1459.94c-0.05,-189.14 111.53,-337.04 312.35,-337.04l546.42 0c195.34,0 311.85,153.22 311.85,337.47l0 1115.28c135.84,-218.15 334.99,-395.14 611.2,-504.53 291.76,-115.56 520.43,-120.06 827.18,-120.06 275.49,0 620.66,81.4 879.98,243.91 38.82,-114.69 144.27,-192.68 272.61,-192.68l589.11 0c108.08,0 205.07,50.29 262.6,142.68 22.48,36.09 29.99,63.59 43.41,101.53 0.65,1.67 1.21,3.17 1.84,4.91l120.29 332.19c0.41,1.14 0.75,2.11 1.15,3.25 50.64,146.02 103.9,291.08 156.64,436.36l106.61 293.71c74.1,-212.4 146.57,-425.43 227.61,-635.26l158.31 -434.55c12.6,-37.44 20.21,-65.44 42.75,-101.91 57.11,-92.42 154.03,-142.91 261.89,-142.91l580.56 0c89.81,0 172.14,43.2 226.83,109.44 36.23,-14.82 72.9,-25.21 110.09,-37.71 418.54,-140.63 1072.32,-173.13 1496.61,-47.41 76.15,22.57 152.95,51.81 223.21,88.78 31.9,16.79 63.65,32.55 94.26,51.8 138.03,86.82 246.09,202.17 324.69,335 1.62,-3.31 3.26,-6.64 4.92,-9.97 327.27,-658.99 1412.4,-605.75 2007.46,-432 135.64,39.61 237.8,137.82 237.8,288.08l0 267.16c53.15,-92.16 116.63,-177.18 190.91,-251.33 35.28,-35.23 66.05,-69.48 105.93,-100.46 275.46,-213.95 624.85,-312.61 970.78,-312.61 320.5,0 502.12,5.51 811.77,113.04 126.27,43.86 226.97,101.3 321.58,175.61 15,-127.34 101.2,-223.34 224.82,-265.75 57.71,-19.8 117.31,-26.77 176.75,-38.67 18.85,-3.78 38.13,-6.72 57.57,-9.24 3.95,-93.25 17.72,-182.33 41.98,-274.09 39.94,-151.08 104.54,-276.77 201.17,-398.48 323.06,-406.87 941,-439.77 1400.84,-287.69 30.65,9.44 57.33,16.55 87.55,30.39 107.46,49.25 180.94,146.89 180.94,267.82 0,66.51 3.49,146.54 4.5,227.32 11.08,-0.86 22.3,-1.31 33.68,-1.31l443.96 0c77.59,0 139.59,27.46 195.47,77.13 64.11,48.27 99.31,119.05 99.31,200.58 0,79.71 -3.27,159.6 -4.46,239.39 54.67,-8.48 106.63,-18.19 138.82,-24.68 72,-14.5 145.24,-43.94 216.97,-62.94 58.28,-15.44 118.02,-25.71 178.47,-18.57 147.82,17.46 255.68,135.09 255.68,285.16l0 554.95c0,297.5 -378.02,332.1 -595.97,364.11 -3.53,0.52 -6.54,0.9 -10.08,1.27l-179.43 19 0 879.2c0,14.74 1.96,38.28 6.41,57.41 67.79,16.2 200.73,3.95 258.14,-10.71 51.71,-19.21 101.05,-31.22 157.74,-29.45 175.36,5.5 294.88,143.51 294.88,315.72l0 367.12c0,166.32 -95.02,256.51 -237.12,311.92 -126.33,49.27 -331.59,85.33 -467.47,85.33 -316.89,0 -572.71,-18.25 -826.33,-232.92 -173.75,-147.05 -282.84,-359.4 -324.24,-581.38 -18.8,-100.76 -20.96,-219.95 -23.48,-322.62 -3.45,-140.44 -3.38,-281.19 -2.65,-421.67 0.69,-132.52 2.34,-265.03 3.52,-397.54 0.09,-10.34 0.26,-20.95 0.45,-31.73 -76.37,-8.91 -152.72,-20.01 -224.13,-28.88 -36.46,-4.53 -91.42,-12.47 -148.21,-19.12 1.14,76.62 4.25,153.34 4.25,229.89l0 1477.03c0,81.56 -35.23,152.36 -99.37,200.62 -55.86,49.65 -117.85,77.09 -195.41,77.09l-572.03 0c-77.57,0 -139.57,-27.44 -195.43,-77.09 -64.14,-48.26 -99.37,-119.06 -99.37,-200.62l0 -631.35c-5.57,18.94 -11.39,37.62 -17.45,56.03 -31.68,96.23 -72.24,179.22 -124.01,265.7 -24,40.09 -48.62,75.63 -76.52,112.96 -68.75,91.99 -105.01,124.57 -187.35,198.56 -418.67,376.21 -1294.15,404.88 -1802.57,216.15 -217.72,-80.82 -363.8,-187.85 -517.43,-359.43 -18.32,-20.45 -35.71,-41.33 -52.22,-62.58 -5.67,10.54 -11.55,20.94 -17.63,31.18 -335.24,564.66 -1233.47,551.85 -1800.45,452.95 -76.62,-13.36 -153.18,-29.82 -228.01,-51.11 -43.52,-12.38 -86.62,-19.46 -129.1,-36.41 -21.9,-8.75 -42.21,-19.33 -60.84,-31.61 -54.58,70.31 -139.59,116.67 -232.61,116.67 -114.75,0 -229.2,2.21 -343.89,3.57 -69.84,0.83 -148.35,2.69 -216.18,-14.75 -50.81,-13.07 -94.69,-36.34 -130.2,-68.03 -55.24,24.5 -112.23,45.28 -167.79,60.28 -244.73,66.06 -404.26,70.16 -653.11,70.16 -252.24,0 -556.67,-103.85 -749.49,-267.05 -100.48,-85.05 -179.91,-178.06 -238.96,-296.77 -104.27,-209.59 -108.89,-324.37 -108.89,-550.59 0,-373.45 231.92,-704.32 555.43,-870.89 -99.28,-11.06 -182.3,-64.23 -230.01,-146.02 -7.32,19.04 -14.7,38.06 -22.29,57 -41.41,103.2 -81.87,206.77 -122.44,310.3l-585.97 1495.59c-47.91,126.07 -134.44,217.2 -281.76,217.2l-631.8 0c-133.71,0 -226.68,-87 -276.76,-203.03 -14.89,-34.48 -25.22,-69.73 -39.03,-104.24 -21.12,-52.81 -42.21,-105.63 -63.36,-158.42 -43.43,-108.39 -85.97,-217.14 -128.73,-325.79l-146.62 -372.58c-47.05,282.02 -177.96,596.04 -356.9,781.8 -289.88,300.94 -693.82,433.49 -1105.95,433.49 -321.48,0 -520.14,-5.47 -828.76,-119.31 -130.44,-48.12 -289.71,-139.7 -388.33,-237.44 -88.16,-87.36 -158.85,-162.61 -221.29,-262.85zm9690.36 -1377.33c-35.73,15.84 -74.87,24.71 -115.54,24.71 -56.64,0 -113.93,-22.69 -167.92,-38.8 -64.71,-19.33 -130.03,-36.02 -196.28,-49.25 -44.05,-8.81 -89.01,-16.2 -134.42,-21.75 177.91,59.46 376.31,128.36 533.56,222.33 18.13,10.83 36.61,22.43 55.07,34.68 5.75,-57.22 14.23,-114.73 25.53,-171.92zm-1912.49 815.07c60.72,-20.65 129,-23.3 196.26,-2.67 101.5,31.14 184.61,58.39 289.11,82.31 69.58,15.93 238.85,35.04 395.72,40.17 -8.14,-2.74 -15.49,-5.21 -21.84,-7.36 -152.59,-51.74 -314.26,-99.37 -461.51,-163.93 -51.5,-22.59 -101.95,-46.18 -152.1,-71.61 -57.7,-29.25 -103.94,-61.62 -155.36,-99.81 -32.47,-24.12 -62.54,-49.62 -90.28,-76.42l0 299.32zm6115.3 -1970.8l363.39 39.62c-0.01,-7.55 0.01,-15.08 0.06,-22.63 -26.86,-5.22 -54.18,-12.85 -83.17,-22.48 -37.44,-12.44 -58.84,-17.89 -99.25,-17.89 -33,0 -131.02,-1.99 -178.76,6.6 -0.93,5.21 -1.68,10.92 -2.27,16.78zm-19693.46 1350.22c45.69,54.31 83.53,106.41 107,152.71 148.67,293.29 138.35,639.75 -60.96,906.98 -32.23,43.22 -77.72,99.29 -120.35,130.52 -87.15,63.85 -199.47,66.23 -289.24,6.12 -75.15,-50.32 -184.16,-169.91 -249.95,-236.1 -76.85,-77.31 -152.83,-155.61 -229.89,-232.67 -144.85,-144.86 -292.88,-286.53 -437.51,-431.84 -89.22,-89.64 -177.99,-180.16 -264.02,-272.87 -65.17,-70.21 -137.96,-148.77 -191.68,-227.99 -196.92,-290.33 -258.51,-549.9 -258.51,-899.75 0,-141.1 40.11,-331.35 91.95,-462.41 106.39,-269.04 210.06,-400.82 410.91,-601.65 190.05,-190.03 378.72,-381.55 568.46,-571.9 116.01,-116.36 232.12,-232.66 348.96,-348.17 55.52,-54.88 147.85,-155.09 211.28,-197.56 86.67,-58.03 193.84,-58.03 280.51,-0.01 178.54,119.55 291.13,410.04 291.13,619.3 0,287.89 -95.06,468.41 -293.68,667.04 -112.42,112.41 -224.83,224.83 -337.25,337.24 -83.81,83.82 -170.47,164.52 -253.62,249.22 -45.13,45.98 -149.63,150.52 -178.11,204.94 -80.09,172.55 -32.38,317.52 98.74,448.6 109.95,109.92 219.86,219.86 329.79,329.79 -146.49,-167.04 -220.11,-336.47 -220.11,-580.52 0,-219.29 114.14,-503.59 299.66,-627.82 111.63,-74.75 262.32,-48.07 341.96,58.25 56.14,66.21 133.45,137.28 195.39,198.75 72.72,72.18 146.31,143.62 218.74,216.05 143.25,143.25 289.46,283.54 432.46,427.25 88.41,88.83 176.39,178.48 261.81,270.21 64.5,69.27 136.2,146.22 189.98,224.03 279.51,404.41 336.89,897.24 175.63,1360.05 -89.65,257.25 -226.88,422.27 -415.28,610.68 -190.04,190.03 -378.71,381.55 -568.47,571.9 -116,116.36 -232.11,232.66 -348.96,348.17 -55.51,54.89 -147.84,155.09 -211.27,197.56 -86.66,58.03 -193.82,58.04 -280.49,0.02 -87.27,-58.42 -169.23,-180.99 -213.72,-276.71 -107.89,-232.12 -103.02,-541.89 23.94,-765.61 110.67,-195 362.54,-414.27 525.28,-577 96.96,-96.95 383.85,-354.22 438.74,-464.23 83.89,-168.09 20.2,-321.12 -105.78,-447.1l-313.47 -313.47z"/>
  <path class="fil0" d="M21262.97 2570.32c-30.35,14.56 -165.02,21.83 -251.19,39.09 -116.75,23.38 -201.32,23.95 -201.32,97.52 0,670.85 -42.7,594.95 177.02,552.66 339.67,-65.38 284.02,-50.65 284.02,181.58l0 1758.77c17.6,11.78 22.16,25.62 42.7,25.62l572.03 0c20.52,0 25.08,-13.84 42.68,-25.62l0 -1477.03c0,-126.92 -14.94,-385.88 8.54,-486.65 128.93,-30.04 647.69,68.3 836.69,68.3l23.79 27.45c14.37,38.06 -22.59,1101.91 21.15,1336.34 33.45,179.31 119.99,334.22 239.29,435.19 198.04,167.63 403.76,173.24 663.46,173.24 103.7,0 284.32,-32.39 375.88,-68.09 38.38,-14.97 76.61,-23.56 76.61,-77.06l0 -367.12c0,-104.54 -109.8,-50 -122.97,-46.15 -134.19,39.18 -418.85,55.34 -519.52,-45.58 -47.75,-47.88 -74.67,-147.26 -74.67,-241.24l0 -1058.67c0,-50.68 17.77,-48.12 65.28,-54.25l339.69 -35.97c64.12,-9.42 380.5,-46.33 380.5,-114.69l0 -554.95c0,-88.37 -196.93,12.81 -349.24,43.49 -83.77,16.87 -345.19,61.11 -427.69,41.89 -24.08,-103.36 -8.54,-373.37 -8.54,-503.74 -17.59,-11.77 -22.16,-25.61 -42.69,-25.61l-443.96 0c-100.34,0 -168.78,86.41 -171.1,187.5 -8.59,375.48 73.68,353.61 -244.77,313.75l-554.28 -60.43c-86.57,-11.11 -71.45,-9.96 -71.45,-184.68 0,-327.7 183.29,-324.44 435.42,-324.44 174.6,0 199.63,67.79 307.36,42.69 19.25,-82.62 8.54,-350.19 8.54,-452.5 0,-37.55 -64.98,-48.75 -95,-58.69 -364,-120.38 -875.43,-109.13 -1124.8,204.93 -70.77,89.12 -121.76,180.91 -154.88,306.16 -58.81,222.46 -19.76,329.04 -42.58,426.99zm-19167.18 145.14c0,221.28 80.05,340.45 215.58,475.98l670.2 670.21c204.97,204.94 285.93,471.74 153.1,737.93 -73.32,146.94 -361.72,405.58 -486.07,529.93 -127.5,127.49 -403.94,381.6 -484.28,523.16 -86.22,151.92 -88.44,376.02 -14.58,534.92 24.66,53.06 83.03,145.15 125.34,173.47 44.99,-30.12 983.32,-979.04 1090.7,-1086.42 156.02,-156.02 277.75,-292.29 355.48,-515.36 136.46,-391.61 86.78,-798.49 -144.96,-1133.77 -124.98,-180.82 -718.21,-749.66 -855.12,-886.57 -65.18,-65.18 -410.87,-401.98 -437.56,-441.82 -95.05,63.64 -187.83,255.88 -187.83,418.34zm-1348.96 -93.91c0,320.24 56.24,524.1 215.05,758.26 124.92,184.19 722.79,755.88 862.84,895.92 65.17,65.17 401.97,410.87 441.82,437.55 13.92,-10.19 54.49,-60.74 67.26,-77.88 141.21,-189.31 144.66,-432.21 38.18,-642.27 -56.56,-111.58 -384.08,-416.53 -483.23,-515.68 -113.08,-113.07 -219.88,-219.91 -332.97,-332.97 -204.73,-204.67 -275.23,-461.47 -148.85,-733.69 60.42,-130.15 364.8,-408.61 481.82,-525.62 114.5,-114.5 222.74,-222.74 337.24,-337.25 144.06,-144.06 219.84,-261.68 219.84,-488.77 0,-141.52 -84.9,-346.62 -179.29,-409.81 -44.98,30.12 -983.31,979.04 -1090.69,1086.42 -173.76,173.75 -257.7,270.7 -354.74,516.09 -34.54,87.34 -74.28,252.79 -74.28,369.7zm11099.03 2604.01l631.8 0c29.92,0 36.89,-30.41 46.58,-55.88l586.43 -1496.78c40.92,-101.88 80.44,-205.68 123.19,-312.22 21.94,-54.68 37.98,-99.23 59.76,-153.68 32.26,-80.64 182.95,-451.14 182.95,-483 0,-19.91 -22.78,-42.69 -42.7,-42.69l-580.56 0c-52.22,0 -53.78,39.54 -67.34,77.8l-159.57 438.07c-136.5,353.07 -260.18,749.92 -398.82,1103.81 -25.8,65.83 -18.45,96.4 -74.36,96.4 -32.29,0 -44.34,-60.85 -54.37,-90.76l-279.68 -770.47c-52.32,-145.55 -105.75,-289.53 -157.85,-439.79l-120.3 -332.2c-15.8,-40.59 -16.08,-82.86 -70.81,-82.86l-589.11 0c-95.05,0 21.33,202.73 56.57,302.02 67.72,190.76 186.7,452.93 253.99,642.47 20.56,57.94 40.18,103.18 62.65,159.33l318.26 808.72c42.77,107.62 84.82,216.2 128.15,324.35 21.44,53.5 40.83,102.09 63.42,158.56 25.13,62.83 44.74,148.8 81.72,148.8zm4209.09 -1852.69c0,231.82 76.56,417.31 253.66,548.88 41.29,30.66 70.66,52.82 119.04,77.34 50.08,25.4 88.6,43.32 139.33,65.57 250.89,110.01 773.18,233.39 850.73,353.08 25.66,39.59 29.49,105.34 18.27,156.62 -4.65,21.21 -19.8,49.3 -36.62,66.07 -128.18,127.88 -724.86,72.57 -902.24,31.97 -172.29,-39.44 -165.23,-43.61 -306.79,-87.03 -56.9,-17.46 -75.61,29.84 -75.61,42.54 0,585.28 -42.49,503.85 150.02,558.61 66.71,18.99 137.16,33.88 202.34,45.25 455.53,79.45 1274.75,114.1 1540.37,-333.31 142.58,-240.14 142.75,-654.08 -67.66,-883.26 -42.96,-46.79 -115.27,-97.37 -169.22,-129.6 -272.08,-162.59 -873.27,-301.54 -986.8,-387.77 -53.83,-40.88 -54.33,-90.9 -54.33,-142.04 0,-105.48 93.19,-126.4 179.79,-144.64 461.84,-97.25 928.63,93.41 955.72,93.41 19.91,0 42.69,-22.78 42.69,-42.68l0 -486.65c0,-28.66 -30.19,-38.45 -56.36,-46.09 -488.21,-142.55 -1456.92,-209.49 -1711.02,302.15 -24.71,49.77 -44.6,92.91 -59.98,153.46 -9.88,38.92 -25.33,142.01 -25.33,188.12zm-2356.4 -512.26l0 367.11c0,123.96 152.37,39.02 217.04,20.68 246.11,-69.79 862.25,-135.83 1102.05,-16.42 161.63,80.47 157.94,229.08 157.94,388.48 0,41.68 -88.19,25.64 -128.07,25.61 -335,-0.24 -755.58,-19.9 -1056.99,61.45 -325.06,87.73 -573.72,381.71 -573.72,706.95 0,188.97 -4.91,262.62 82.5,438.3 44.6,89.68 103.59,155.25 176.11,216.63 143.03,121.05 388.5,207.38 586.63,207.38 245.88,0 344.12,4.22 587.41,-61.45 83.2,-22.46 177,-65.08 249.79,-108.8 85.78,-51.52 59.51,-48.52 119.02,-34.65 45.72,196.24 -76.98,153.68 554.95,153.68 19.92,0 42.69,-22.79 42.69,-42.7l0 -1647.78c0,-293.91 -119.13,-572.76 -365.25,-727.57 -23.56,-14.82 -52.72,-29.09 -77.44,-42.1 -51.97,-27.34 -115.48,-51.81 -177.42,-70.16 -376.15,-111.46 -980.61,-77.66 -1344.71,44.67 -33.29,11.19 -72.66,22.09 -101.68,34.93 -36.19,16.04 -50.85,34.37 -50.85,85.76zm4499.38 1024.52c0,363.07 43.81,737.1 283.94,1005.26 123.55,137.97 233.52,223.01 417.36,291.26 421.2,156.34 1203.45,140.78 1546.34,-167.32 87.63,-78.75 77.51,-59.74 153.92,-161.97 25.74,-34.45 39.06,-52.98 62.15,-91.53 41.65,-69.59 73.23,-131.14 100.85,-215.04 160.94,-488.87 128.11,-1210.16 -231.62,-1567.8 -115.26,-114.59 -216.5,-193.96 -374.45,-248.82 -297.46,-103.3 -422.28,-99.08 -729.06,-99.08 -300.29,0 -592.42,85.84 -816.15,259.61 -30.15,23.41 -55.32,52.68 -82.45,79.76 -222.23,221.87 -330.83,583.81 -330.83,915.67zm-9895.22 68.3c0,281.47 53.04,548.14 173.52,774.16 61.12,114.66 127.3,180.9 212.64,265.48 71.29,70.64 202.52,144.71 298.13,179.98 289.18,106.68 438.81,103.73 741.51,103.73 360.08,0 692.21,-115.26 924.38,-356.28 182.28,-189.24 302.7,-565.32 305.39,-813.06 0.27,-24.97 -1.71,-52.52 -0.38,-77.21 5.05,-93.84 16.2,-13.88 1.29,-146.35 -2.82,-25.08 -0.72,-50.66 -0.93,-75.9 -0.95,-112.1 -45.1,-318.18 -76.01,-410.65 -63.27,-189.27 -112.99,-263.25 -230.39,-409.94 -187.52,-234.29 -621.94,-357.3 -923.35,-357.3 -277.29,0 -473.91,-0.81 -734.36,102.34 -512.51,202.98 -691.44,692.19 -691.44,1221zm-3158.96 -2108.82l0 3338.25c0,19.91 22.78,42.7 42.69,42.7l580.57 0c66.39,0 42.68,-171.23 42.68,-239.06l0 -1434.34c0,-134.61 -15.2,-461.59 8.55,-563.49 23.05,-1.92 23.22,-4 42.68,-8.54 48.27,41.96 334.08,462 404.89,559.87 35.42,48.96 65.61,92.96 98.9,140.17l1055.14 1489.09c19.09,28.26 31.46,56.3 71.78,56.3 110.32,0 444.82,11.14 529.33,-8.55 10.53,-21.94 17.08,-52.03 17.08,-85.38l0 -3244.33c0,-46.96 -11.31,-85.37 -59.76,-85.37l-546.42 0c-52.48,0 -60.28,30.92 -60.25,84.88l0.51 2041.02c0.25,85.17 15.24,119.51 -51.25,119.51 -29.97,0 -188.12,-247.46 -206.2,-271.91l-1352.81 -1908.59c-14.42,-21.98 -35.2,-64.91 -63.16,-64.91l-512.26 0c-19.91,0 -42.69,22.78 -42.69,42.68z"/>
  <g id="_2990634929808">
   <path class="fil1" d="M21262.97 2570.32c-30.35,14.56 -165.02,21.83 -251.19,39.09 -116.75,23.38 -201.32,23.95 -201.32,97.52 0,670.85 -42.7,594.95 177.02,552.66 339.67,-65.38 284.02,-50.65 284.02,181.58l0 1758.77c17.6,11.78 22.16,25.62 42.7,25.62l572.03 0c20.52,0 25.08,-13.84 42.68,-25.62l0 -1477.03c0,-126.92 -14.94,-385.88 8.54,-486.65 128.93,-30.04 647.69,68.3 836.69,68.3l23.79 27.45c14.37,38.06 -22.59,1101.91 21.15,1336.34 33.45,179.31 119.99,334.22 239.29,435.19 198.04,167.63 403.76,173.24 663.46,173.24 103.7,0 284.32,-32.39 375.88,-68.09 38.38,-14.97 76.61,-23.56 76.61,-77.06l0 -367.12c0,-104.54 -109.8,-50 -122.97,-46.15 -134.19,39.18 -418.85,55.34 -519.52,-45.58 -47.75,-47.88 -74.67,-147.26 -74.67,-241.24l0 -1058.67c0,-50.68 17.77,-48.12 65.28,-54.25l339.69 -35.97c64.12,-9.42 380.5,-46.33 380.5,-114.69l0 -554.95c0,-88.37 -196.93,12.81 -349.24,43.49 -83.77,16.87 -345.19,61.11 -427.69,41.89 -24.08,-103.36 -8.54,-373.37 -8.54,-503.74 -17.59,-11.77 -22.16,-25.61 -42.69,-25.61l-443.96 0c-100.34,0 -168.78,86.41 -171.1,187.5 -8.59,375.48 73.68,353.61 -244.77,313.75l-554.28 -60.43c-86.57,-11.11 -71.45,-9.96 -71.45,-184.68 0,-327.7 183.29,-324.44 435.42,-324.44 174.6,0 199.63,67.79 307.36,42.69 19.25,-82.62 8.54,-350.19 8.54,-452.5 0,-37.55 -64.98,-48.75 -95,-58.69 -364,-120.38 -875.43,-109.13 -1124.8,204.93 -70.77,89.12 -121.76,180.91 -154.88,306.16 -58.81,222.46 -19.76,329.04 -42.58,426.99z"/>
   <path class="fil1" d="M5143.75 1844.61l0 3338.25c0,19.91 22.78,42.7 42.69,42.7l580.57 0c66.39,0 42.68,-171.23 42.68,-239.06l0 -1434.34c0,-134.61 -15.2,-461.59 8.55,-563.49 23.05,-1.92 23.22,-4 42.68,-8.54 48.27,41.96 334.08,462 404.89,559.87 35.42,48.96 65.61,92.96 98.9,140.17l1055.14 1489.09c19.09,28.26 31.46,56.3 71.78,56.3 110.32,0 444.82,11.14 529.33,-8.55 10.53,-21.94 17.08,-52.03 17.08,-85.38l0 -3244.33c0,-46.96 -11.31,-85.37 -59.76,-85.37l-546.42 0c-52.48,0 -60.28,30.92 -60.25,84.88l0.51 2041.02c0.25,85.17 15.24,119.51 -51.25,119.51 -29.97,0 -188.12,-247.46 -206.2,-271.91l-1352.81 -1908.59c-14.42,-21.98 -35.2,-64.91 -63.16,-64.91l-512.26 0c-19.91,0 -42.69,22.78 -42.69,42.68z"/>
   <path class="fil1" d="M14552.32 4773.05c-136.02,0 -268.03,6.3 -387.13,-56.83 -138.68,-73.51 -125.13,-184.54 -125.13,-301.75 0,-100.82 57.56,-182.95 119.62,-221.89 63.94,-40.12 176.67,-59.86 281.65,-59.86l700.09 0c19.99,0 34.16,14.17 34.16,34.16l0 307.35c0,34.95 -19.68,52.62 -40.47,70.53 -21.62,18.62 -43.12,34.79 -66.78,52.76 -46.75,35.53 -88.44,60.29 -143.08,87.43 -92.57,45.97 -238.35,88.1 -372.93,88.1zm-853.77 -1912.44l0 367.11c0,123.96 152.37,39.02 217.04,20.68 246.11,-69.79 862.25,-135.83 1102.05,-16.42 161.63,80.47 157.94,229.08 157.94,388.48 0,41.68 -88.19,25.64 -128.07,25.61 -335,-0.24 -755.58,-19.9 -1056.99,61.45 -325.06,87.73 -573.72,381.71 -573.72,706.95 0,188.97 -4.91,262.62 82.5,438.3 44.6,89.68 103.59,155.25 176.11,216.63 143.03,121.05 388.5,207.38 586.63,207.38 245.88,0 344.12,4.22 587.41,-61.45 83.2,-22.46 177,-65.08 249.79,-108.8 85.78,-51.52 59.51,-48.52 119.02,-34.65 45.72,196.24 -76.98,153.68 554.95,153.68 19.92,0 42.69,-22.79 42.69,-42.7l0 -1647.78c0,-293.91 -119.13,-572.76 -365.25,-727.57 -23.56,-14.82 -52.72,-29.09 -77.44,-42.1 -51.97,-27.34 -115.48,-51.81 -177.42,-70.16 -376.15,-111.46 -980.61,-77.66 -1344.71,44.67 -33.29,11.19 -72.66,22.09 -101.68,34.93 -36.19,16.04 -50.85,34.37 -50.85,85.76z"/>
   <path class="fil1" d="M9634.59 4704.75c-188.49,0 -367.9,-30.71 -497.46,-159.95 -217.76,-217.24 -210.96,-935.49 -20.94,-1161.01 209.47,-248.61 870.4,-220 1035.8,1.02 132.97,177.7 140.01,387.54 140.01,628.39 0,196.3 -55.5,424.05 -151.35,523.13 -128.21,132.55 -311.15,168.42 -506.06,168.42zm-1331.88 -751.32c0,281.47 53.04,548.14 173.52,774.16 61.12,114.66 127.3,180.9 212.64,265.48 71.29,70.64 202.52,144.71 298.13,179.98 289.18,106.68 438.81,103.73 741.51,103.73 360.08,0 692.21,-115.26 924.38,-356.28 182.28,-189.24 302.7,-565.32 305.39,-813.06 0.27,-24.97 -1.71,-52.52 -0.38,-77.21 5.05,-93.84 16.2,-13.88 1.29,-146.35 -2.82,-25.08 -0.72,-50.66 -0.93,-75.9 -0.95,-112.1 -45.1,-318.18 -76.01,-410.65 -63.27,-189.27 -112.99,-263.25 -230.39,-409.94 -187.52,-234.29 -621.94,-357.3 -923.35,-357.3 -277.29,0 -473.91,-0.81 -734.36,102.34 -512.51,202.98 -691.44,692.19 -691.44,1221z"/>
   <path class="fil1" d="M18863.87 3953.43c0,-438.72 125.37,-742.78 606.18,-742.78 159.67,0 245.21,-3.34 393.93,50.03 268.05,96.18 323.24,402.35 323.24,692.75 0,491.18 -147.42,751.32 -657.41,751.32 -512.31,0 -665.94,-248.13 -665.94,-751.32zm-665.94 -68.3c0,363.07 43.81,737.1 283.94,1005.26 123.55,137.97 233.52,223.01 417.36,291.26 421.2,156.34 1203.45,140.78 1546.34,-167.32 87.63,-78.75 77.51,-59.74 153.92,-161.97 25.74,-34.45 39.06,-52.98 62.15,-91.53 41.65,-69.59 73.23,-131.14 100.85,-215.04 160.94,-488.87 128.11,-1210.16 -231.62,-1567.8 -115.26,-114.59 -216.5,-193.96 -374.45,-248.82 -297.46,-103.3 -422.28,-99.08 -729.06,-99.08 -300.29,0 -592.42,85.84 -816.15,259.61 -30.15,23.41 -55.32,52.68 -82.45,79.76 -222.23,221.87 -330.83,583.81 -330.83,915.67z"/>
   <path class="fil1" d="M16054.95 3372.87c0,231.82 76.56,417.31 253.66,548.88 41.29,30.66 70.66,52.82 119.04,77.34 50.08,25.4 88.6,43.32 139.33,65.57 250.89,110.01 773.18,233.39 850.73,353.08 25.66,39.59 29.49,105.34 18.27,156.62 -4.65,21.21 -19.8,49.3 -36.62,66.07 -128.18,127.88 -724.86,72.57 -902.24,31.97 -172.29,-39.44 -165.23,-43.61 -306.79,-87.03 -56.9,-17.46 -75.61,29.84 -75.61,42.54 0,585.28 -42.49,503.85 150.02,558.61 66.71,18.99 137.16,33.88 202.34,45.25 455.53,79.45 1274.75,114.1 1540.37,-333.31 142.58,-240.14 142.75,-654.08 -67.66,-883.26 -42.96,-46.79 -115.27,-97.37 -169.22,-129.6 -272.08,-162.59 -873.27,-301.54 -986.8,-387.77 -53.83,-40.88 -54.33,-90.9 -54.33,-142.04 0,-105.48 93.19,-126.4 179.79,-144.64 461.84,-97.25 928.63,93.41 955.72,93.41 19.91,0 42.69,-22.78 42.69,-42.68l0 -486.65c0,-28.66 -30.19,-38.45 -56.36,-46.09 -488.21,-142.55 -1456.92,-209.49 -1711.02,302.15 -24.71,49.77 -44.6,92.91 -59.98,153.46 -9.88,38.92 -25.33,142.01 -25.33,188.12z"/>
   <path class="fil1" d="M11845.86 5225.56l631.8 0c29.92,0 36.89,-30.41 46.58,-55.88l586.43 -1496.78c40.92,-101.88 80.44,-205.68 123.19,-312.22 21.94,-54.68 37.98,-99.23 59.76,-153.68 32.26,-80.64 182.95,-451.14 182.95,-483 0,-19.91 -22.78,-42.69 -42.7,-42.69l-580.56 0c-52.22,0 -53.78,39.54 -67.34,77.8l-159.57 438.07c-136.5,353.07 -260.18,749.92 -398.82,1103.81 -25.8,65.83 -18.45,96.4 -74.36,96.4 -32.29,0 -44.34,-60.85 -54.37,-90.76l-279.68 -770.47c-52.32,-145.55 -105.75,-289.53 -157.85,-439.79l-120.3 -332.2c-15.8,-40.59 -16.08,-82.86 -70.81,-82.86l-589.11 0c-95.05,0 21.33,202.73 56.57,302.02 67.72,190.76 186.7,452.93 253.99,642.47 20.56,57.94 40.18,103.18 62.65,159.33l318.26 808.72c42.77,107.62 84.82,216.2 128.15,324.35 21.44,53.5 40.83,102.09 63.42,158.56 25.13,62.83 44.74,148.8 81.72,148.8z"/>
   <path class="fil2" d="M746.83 2621.55c0,320.24 56.24,524.1 215.05,758.26 124.92,184.19 722.79,755.88 862.84,895.92 65.17,65.17 401.97,410.87 441.82,437.55 13.92,-10.19 54.49,-60.74 67.26,-77.88 141.21,-189.31 144.66,-432.21 38.18,-642.27 -56.56,-111.58 -384.08,-416.53 -483.23,-515.68 -113.08,-113.07 -219.88,-219.91 -332.97,-332.97 -204.73,-204.67 -275.23,-461.47 -148.85,-733.69 60.42,-130.15 364.8,-408.61 481.82,-525.62 114.5,-114.5 222.74,-222.74 337.24,-337.25 144.06,-144.06 219.84,-261.68 219.84,-488.77 0,-141.52 -84.9,-346.62 -179.29,-409.81 -44.98,30.12 -983.31,979.04 -1090.69,1086.42 -173.76,173.75 -257.7,270.7 -354.74,516.09 -34.54,87.34 -74.28,252.79 -74.28,369.7z"/>
   <path class="fil2" d="M2095.79 2715.46c0,221.28 80.05,340.45 215.58,475.98l670.2 670.21c204.97,204.94 285.93,471.74 153.1,737.93 -73.32,146.94 -361.72,405.58 -486.07,529.93 -127.5,127.49 -403.94,381.6 -484.28,523.16 -86.22,151.92 -88.44,376.02 -14.58,534.92 24.66,53.06 83.03,145.15 125.34,173.47 44.99,-30.12 983.32,-979.04 1090.7,-1086.42 156.02,-156.02 277.75,-292.29 355.48,-515.36 136.46,-391.61 86.78,-798.49 -144.96,-1133.77 -124.98,-180.82 -718.21,-749.66 -855.12,-886.57 -65.18,-65.18 -410.87,-401.98 -437.56,-441.82 -95.05,63.64 -187.83,255.88 -187.83,418.34z"/>
  </g>
 </g>
</svg>
